<?xml version="1.0" encoding="UTF-8" standalone="no"?>
<svg xmlns="http://www.w3.org/2000/svg" height="16px" width="16px" version="1.1" viewBox="0 0 16 16" fill="#000">
 <path opacity=".2" d="m8.8 4.1284c0 0.5522-0.3551 0.8716-0.8 0.8716-0.4418 0-0.8-0.3155-0.8-0.8716v-3.2646c0-0.55215 0.3551-0.8638 0.8-0.8638 0.4418 0 0.8 0.30774 0.8 0.86383v3.1364 0.1282z">
  <animate begin="0" from="1" repeatCount="indefinite" attributeName="opacity" to=".2" dur="1s"/>
 </path>
 <path opacity=".2" d="m10.629 5.0471c-0.276 0.4782-0.7437 0.5773-1.129 0.3548-0.3826-0.2209-0.5351-0.6732-0.257-1.1548l1.632-2.8272c0.276-0.4782 0.74-0.57056 1.125-0.3481 0.383 0.2209 0.539 0.6665 0.261 1.1481l-1.568 2.7162-0.064 0.111z">
  <animate begin="0.083333333" from="1" repeatCount="indefinite" attributeName="opacity" to=".2" dur="1s"/>
 </path>
 <path opacity=".2" d="m11.753 6.757c-0.478 0.2761-0.932 0.1283-1.155-0.257-0.221-0.3826-0.127-0.8506 0.355-1.1286l2.827-1.6323c0.478-0.2761 0.926-0.1244 1.148 0.2609 0.221 0.3826 0.134 0.8467-0.348 1.1247l-2.716 1.5682-0.111 0.0641z">
  <animate begin="0.166666667" from="1" repeatCount="indefinite" attributeName="opacity" to=".2" dur="1s"/>
 </path>
 <path opacity=".2" d="m16 8c0 0.4418-0.315 0.8-0.872 0.8h-3.264c-0.552 0-0.864-0.3551-0.864-0.8 0-0.4418 0.308-0.8 0.864-0.8h3.136 0.128c0.553 0 0.872 0.3551 0.872 0.8z">
  <animate begin="0.25" from="1" repeatCount="indefinite" attributeName="opacity" to=".2" dur="1s"/>
 </path>
 <path opacity=".2" d="m10.953 10.629c-0.478-0.276-0.577-0.7437-0.355-1.129 0.221-0.3826 0.673-0.5351 1.155-0.257l2.827 1.632c0.478 0.276 0.571 0.74 0.348 1.125-0.221 0.383-0.666 0.539-1.148 0.261l-2.716-1.568-0.111-0.064z">
  <animate begin="0.333333333" from="1" repeatCount="indefinite" attributeName="opacity" to=".2" dur="1s"/>
 </path>
 <path opacity=".2" d="m9.243 11.753c-0.2761-0.478-0.1283-0.932 0.257-1.155 0.3826-0.221 0.851-0.127 1.129 0.355l1.632 2.827c0.276 0.478 0.124 0.926-0.261 1.148-0.383 0.221-0.847 0.134-1.125-0.348l-1.5679-2.716-0.0641-0.111z">
  <animate begin="0.416666667" from="1" repeatCount="indefinite" attributeName="opacity" to=".2" dur="1s"/>
 </path>
 <path opacity=".2" d="m8.8 15.128c0 0.553-0.3551 0.872-0.8 0.872-0.4418 0-0.8-0.315-0.8-0.872v-3.264c0-0.552 0.3551-0.864 0.8-0.864 0.4418 0 0.8 0.308 0.8 0.864v3.136 0.128z">
  <animate begin="0.5" from="1" repeatCount="indefinite" attributeName="opacity" to=".2" dur="1s"/>
 </path>
 <path opacity=".2" d="m5.1286 14.573c-0.2761 0.479-0.7433 0.578-1.1286 0.355-0.3826-0.221-0.5351-0.673-0.257-1.155l1.6323-2.827c0.2761-0.478 0.7394-0.57 1.1247-0.348 0.3826 0.221 0.539 0.667 0.2609 1.148l-1.5682 2.716-0.0641 0.111z">
  <animate begin="0.583333333" from="1" repeatCount="indefinite" attributeName="opacity" to=".2" dur="1s"/>
 </path>
 <path opacity=".2" d="m2.2266 12.257c-0.4782 0.276-0.9323 0.128-1.1548-0.257-0.22092-0.383-0.1268-0.851 0.3548-1.129l2.8272-1.6319c0.4782-0.2761 0.9257-0.1244 1.1481 0.2609 0.2209 0.3826 0.1335 0.847-0.3481 1.125l-2.7161 1.568-0.1111 0.064z">
  <animate begin="0.666666667" from="1" repeatCount="indefinite" attributeName="opacity" to=".2" dur="1s"/>
 </path>
 <path opacity=".2" d="m4.1284 7.2c0.5522 0 0.8716 0.3551 0.8716 0.8 0 0.4418-0.3155 0.8-0.8716 0.8h-3.2646c-0.55215 0-0.8638-0.3551-0.8638-0.8 2.7054e-17 -0.4418 0.30774-0.8 0.86383-0.8h3.1364 0.1282z">
  <animate begin="0.75" from="1" repeatCount="indefinite" attributeName="opacity" to=".2" dur="1s"/>
 </path>
 <path opacity=".2" d="m1.4266 5.1286c-0.47822-0.2761-0.57726-0.7433-0.3548-1.1286 0.2209-0.3826 0.6732-0.5351 1.1548-0.257l2.8272 1.6323c0.4782 0.2761 0.5706 0.7394 0.3481 1.1247-0.2209 0.3826-0.6665 0.539-1.1481 0.2609l-2.7161-1.5682-0.1111-0.0641z">
  <animate begin="0.833333333" from="1" repeatCount="indefinite" attributeName="opacity" to=".2" dur="1s"/>
 </path>
 <path opacity=".2" d="m3.743 2.2266c-0.2761-0.4782-0.1283-0.9323 0.257-1.1548 0.3826-0.22092 0.8506-0.1268 1.1286 0.3548l1.6323 2.8272c0.2761 0.4782 0.1244 0.9257-0.2609 1.1481-0.3826 0.2209-0.8467 0.1335-1.1247-0.3481l-1.5682-2.7161-0.0641-0.1111z">
  <animate begin="0.916666667" from="1" repeatCount="indefinite" attributeName="opacity" to=".2" dur="1s"/>
 </path>
</svg>
